/* XPM */
static char *collect[] = {
/* columns rows colors chars-per-pixel */
"32 32 38 1 ",
"  c #0C0A07",
". c #2D1E1B",
"X c #3A2B28",
"o c #553D39",
"O c #505213",
"+ c #606216",
"@ c #72751B",
"# c #554C3C",
"$ c #2E3F48",
"% c #5F4641",
"& c #58574D",
"* c #5B5A50",
"= c #5C5A54",
"- c #634A45",
"; c #674E49",
": c #605C48",
"> c #605F58",
", c #5F7050",
"< c #64604B",
"1 c #6C6852",
"2 c #68675C",
"3 c #657358",
"4 c #6C6B60",
"5 c #6E6D65",
"6 c #737169",
"7 c #7C7B6E",
"8 c #807F72",
"9 c #828076",
"0 c #838279",
"q c #848279",
"w c #878679",
"e c #88867D",
"r c #89877F",
"t c #8D8B83",
"y c #8E8C83",
"u c #8F9D84",
"i c #939189",
"p c #E4B5A5",
/* pixels */
"@@@@@@@@@@@@@@@@@@@@@@@@@@@@@@@@",
"@@wwwwwwwwwwww@@@@888888888888@@",
"@ywwwwwwwwwwwwy@@e888888888888e@",
"@ywwwwwwwwwwwwy@@e888888888888e@",
"@ywwwwwwwwwwwwy@@e888888888888e@",
"@ywwwwwwwwwwwwy@@e888888888888e@",
"@ywwwwwwwwwwwwy@@e888888888888e@",
"@ywwwwwwwwwwwwy@@e888888888888e@",
"@ywwwwwwwwwwwwy@@e888888888888e@",
"@ywwwwwwwwwwwwy@@e888888888888e@",
"@ywwwwwwwwwwwwy@@e8  888888888e@",
"@ywwwwwwwwwwwwy@@e oo    88888e@",
"@ywwwwwwwwwwwwy@@e  %oooo 9988e@",
"@ywwwwwwwwww   @@ o%%%%%#o 788e@",
"@<iiiiiiiii u,u  o%%;-;-; teet<@",
"@@<<<<<<<1 33333;;--%%%--; :::@@",
"@@@@@@    333XXoo-;%%%%--% @@@@@",
"@@88q .$$$$$$3XX;;%%----%%; 77@@",
"@e888 ##pXXXXXXX%%%%-%;-%-% 788@",
"@e8883=:*****&2OO=&&&&&&&&&>788@",
"@e88q7422225226++52222222247778@",
"@e888788q8q888t@@87777777777778@",
"@e888q88888788e@@e777777777777e@",
"@e88888887q888e@@8777777777777q@",
"@e888888888888e@@q7777777777778@",
"@e888888888888e@@q777777777777q@",
"@e888888888888w@@q777777777777q@",
"@e888888888888e@@q7777777777770@",
"@e888888888888e@@q7777777777770@",
"@e88888888888qe@@q7777777777778@",
"@:yyyyyyytyyry<@@:rrrreeteeeet>@",
"@@<<<<<:<<<<<<@@@@:::::::*::&;@@"
};
