/* XPM */
static char *exit[] = {
/* columns rows colors chars-per-pixel */
"16 20 12 1 ",
"  c #5C3E30",
". c #784D36",
"X c #5A5641",
"o c #6D6954",
"O c #986641",
"+ c #B87F4C",
"@ c #817C68",
"# c #C79455",
"$ c #D6A95E",
"% c #B3B094",
"& c #D1D1BB",
"* c None",
/* pixels */
"****........****",
"**..$$$#$$$$..**",
"*.$#OOOOOOOO#$ *",
"*.$O        +$ *",
".+$O        +$+ ",
"o@$#++++++++#$@X",
"o&@@$$$$#$$$@@%X",
".o&&@@@@@@@@&%o ",
".Ooo&&%&&&%%ooO ",
".++Ooooooooo+O+ ",
".++O+O++O++++O+ ",
".++O+O++O++++O+ ",
".O+O++++O+O++OO ",
"oo+O++++O++++OoX",
"o&oo++++O+O+oo%X",
" o&&oooooooo&%o ",
"* oo&&&&&&%%oo *",
"** Ooooooooo+ **",
"***  +++O++  ***",
"*****      *****"
};
