/* XPM */
static char *exit[] = {
/* columns rows colors chars-per-pixel */
"32 32 62 1 ",
"  c #4A2611",
". c #4E2913",
"X c #4F2F1A",
"o c #502A13",
"O c #4F301B",
"+ c #55331C",
"@ c #59351D",
"# c #4F3B2C",
"$ c #573723",
"% c #593720",
"& c #5B3B25",
"* c #543D2C",
"= c #5C3E2A",
"- c #656417",
"; c #72751B",
": c #5E412C",
"> c #574031",
", c #5E4A3B",
"< c #5A523F",
"1 c #61432E",
"2 c #634632",
"3 c #644833",
"4 c #654B38",
"5 c #5D564D",
"6 c #5F584E",
"7 c #645646",
"8 c #6C5442",
"9 c #655847",
"0 c #6F5847",
"q c #61574C",
"w c #635B4C",
"e c #695B4C",
"r c #635C52",
"t c #685F52",
"y c #64604B",
"u c #666056",
"i c #696155",
"p c #676358",
"a c #6B645B",
"s c #6F685F",
"d c #756D5B",
"f c #77705B",
"g c #79715E",
"h c #6F6A60",
"j c #736D63",
"k c #766F68",
"l c #757066",
"z c #7C7462",
"x c #7D7B6E",
"c c #7F7C70",
"v c #807F72",
"b c #838175",
"n c #878679",
"m c #89867C",
"M c #8C8A7E",
"N c #8E8C82",
"B c #918E85",
"V c #939186",
"C c #96948B",
"Z c #99968D",
"A c #9A988F",
"S c #A09D96",
/* pixels */
";;;;;;;;;;;;;;;;;;;;;;;;;;;;;;;;",
";;nnnmnnmm===11:&&&ovvvvvvvvvv;;",
";Nnnnnnn22ZZCCBBBBvvoovvvvvvvvN;",
";Nnnnn08BZZZACBBBBmvvv..vvvvvcm;",
";Nnnn4nVBZZZZZBBBBvmvvjjXccbvvm;",
";Nnn3nmVBAACZZBBBBvvvbjjkOccvvm;",
";Nnn3mnVBAZZZZBBBBvmbbkjj.bcvcm;",
";Nnn3nmBBZZZZCBBBBvvbbjsj.cbccm;",
";Nmm2mmVBZZSSSCCCZBvvbjhh.vvvvm;",
";Nnn2mmVVSSzkjjkjhhBNbjhj.vvvvm;",
";===2mmZZkjkkkjkjhjhhvcjj....cm;",
"1Vnn2BNkjjz@@@@%%%$hhhach.q77 N;",
"1Bnn@gjjk@@ttereeee=&sahx.79q.m;",
"1VMn+gjz:0rattarttrew&aaa 777.m;",
"3Cmnojj&8rta77=7,7rauq$aa.99i ,-",
"3AMm@gj&eett=kkkk*rrur$aa ewi --",
"3ZMM@jh&wrtri*>>*rqrr6$ar.eei --",
"3Znm@jh@wwwrrrwwqqrqrrXrr.eri --",
"3Zmm&sh%eqqqqr66rq6rr6+rr.rty l-",
"3Zmm&at$qqr**r>##6#66rXrrOrrr l-",
"3Znn&ai%qqqty6apt6teqrX55XeiM l-",
"1Znn%tt%$$&=::::==:&XXX55OyxB l-",
"3Annn11zzzjgddfdjsdisdd$*xxxN l-",
"3Mnnnnbbbvvvvvvvvvvvvxxxxxxxm k-",
"1ZvmvvvvvvvvvvvvxxxxxxxxxxxxV k-",
"1ASASSCZVBVNMNMNNMNnMNnnmVVBV k-",
"odstrrttrrr666665prppu5555wrp k-",
"oftttrrerrrr6666555uuu555555p h-",
".hrrrrrr6r666555555pp5555555p h;",
"....ooooX                     b;",
";uNNNNNNNNNNNNy;;ynmnmnnnmMmNm6;",
";;yywyeryyyyyy;;;;5y5yy5y6<y66;;"
};
