/* XPM */
static char *floor[] = {
/* columns rows colors chars-per-pixel */
"27 28 2 1 ",
"  c #84C881",
". c #95D982",
/* pixels */
"...........................",
"...................   .....",
"....................   ....",
"....... .... ............. ",
"......  .... ............. ",
"......  .... . ............",
"...... .....   ... ........",
"............  .... ........",
"..   .............  .......",
"...   ............  ... ...",
"................... ... . .",
"....................... . .",
"...........................",
"...........................",
"...........................",
".......................... ",
".......................... ",
"...   ...... ..... ....... ",
"....   ........... . ......",
".................. . ......",
"............ ..............",
".......... . ..............",
"..  ...... . ..............",
"..   ..... ............... ",
"...  ..............   .... ",
"....................   ....",
"............  .............",
"...........   ............."
};
