/* XPM */
static char *floor[] = {
/* columns rows colors chars-per-pixel */
"32 32 16 1 ",
"  c #72751B",
". c #605C48",
"X c #64604B",
"o c #6C6852",
"O c #7C7B6E",
"+ c #807F72",
"@ c #828076",
"# c #848377",
"$ c #838279",
"% c #848279",
"& c #878679",
"* c #87867D",
"= c #88867D",
"- c #8D8B83",
"; c #8E8C83",
": c #939189",
/* pixels */
"                                ",
"  &&&&&&&&&&&&    ++++++++++++  ",
" ;&&&&&&&&&&&&;  =++++++++++++= ",
" ;&&&&&&&&&&&&;  =++++++++++++= ",
" ;&&&&&&&&&&&&;  =++++++++++++= ",
" ;&&&&&&&&&&&&;  =++++++++++++= ",
" ;&&&&&&&&&&&&;  =++++++++++++= ",
" ;&&&&&&&&&&&&;  =++++++++++++= ",
" ;&&&&&&&&&&&&;  =++++++++++++= ",
" ;&&&&&&&&&&&&;  &++++++++++++= ",
" ;&&&&&&&&&&&&;  =++++++++++++= ",
" ;&&&&&&&&&&&&;  =++++++++++++= ",
" ;&&&&&&&&&&&&;  =@++++++@@@++= ",
" ;&&&&&&&&&&&&;  =++@O+++@OO++= ",
" X::::::::::::X  X;-;;;;==-*=-X ",
"  XXXXXXXooooX    XXXXX.......  ",
"                                ",
"  ++++++++++++    +OOOOOOOOOOO  ",
" =++++++++++++=  #OOOOOOOOOOOO@ ",
" =++++++++++++=  @OOOOOOOOOOOO$ ",
" =++++++++++++=  @OOOOOOOOOOOO$ ",
" =++++++++++++=  @OOOOOOOOOOOO$ ",
" =++++++++++++=  $OOOOOOOOOOOO$ ",
" =++++++++++++=  $OOOOOOOOOOOO$ ",
" =++++++++++++=  %OOOOOOOOOOOO$ ",
" =++++++++++++=  $OOOOOOOOOOOO$ ",
" =++++++++++++=  %OOOOOOOOOOOO$ ",
" =++++++++++++=  %OOOOOOOOOOOO@ ",
" =++++++++++++=  %OOOOOOOOOOOO% ",
" =+++++++@++++=  %OOOOOOOOOOOO$ ",
" X------;;;;--.  .-***-=-**=-=. ",
"  XXXXXXXX.XX.    ............  "
};
