/* XPM */
static char *player_right[] = {
/* columns rows colors chars-per-pixel */
"32 32 44 1 ",
"  c black",
". c #342A25",
"X c #3C312C",
"o c #7A2D18",
"O c #512D23",
"+ c #5B3C2C",
"@ c #453A35",
"# c #4F5210",
"$ c #5F6215",
"% c #72751B",
"& c #4A413C",
"* c #5A5237",
"= c #645C3F",
"- c #5A594F",
"; c #5D5B55",
": c #605C48",
"> c #605E58",
", c #695D58",
"< c #5E724A",
"1 c #64604B",
"2 c #70694F",
"3 c #6C6852",
"4 c #68675C",
"5 c #6B6B5F",
"6 c #677755",
"7 c #6A7A5A",
"8 c #6F6D65",
"9 c #727169",
"0 c #7C7B6E",
"q c #807F72",
"w c #70805F",
"e c #778667",
"r c #8DAB5F",
"t c #828076",
"y c #838178",
"u c #848279",
"i c #878679",
"p c #88867D",
"a c #89877F",
"s c #A2A97F",
"d c #8D8B83",
"f c #8E8C83",
"g c #939189",
"h c #BEC49F",
/* pixels */
"%%%%%%%%%%%%%%%%%%%%%%%%%%%%%%%%",
"%%iiiiiiiiiiii%%%%qqqqqqqqqqqq%%",
"%fiiiiiiiiiiiif%%pqqqqqqqqqqqqp%",
"%fiiiiiiiiiiii     qqqqqqqqqqqp%",
"%fiiiiiiiiiii <+OOO qqqqqqqqqqp%",
"%fiiiiiiiiii O++OO+< qqqqqqqqqp%",
"%fiiiiiiiii OO+<+O+<< qqqqqqqqp%",
"%fiiiiiiiii O+<<++6<< qqqqqqqqp%",
"%fiiiiiiiii +<66w+76< qqqqqqqqp%",
"%fiiiiiiiii <6www+we6 qqqqqqqqp%",
"%fiiiiiiiii <w   w+   qqqqqqqqp%",
"%fiiiiiiiiii wwhrw+rh qqqqqqqqp%",
"%fiiiiiiiiii wwwww+w6 qqetttqqp%",
"%fiiiiiiiii  <wwwww+7 qqqt00qqp%",
"%1gggggggg O@X<swsws+ dddpdppd1%",
"%%11111113 OOXX<soso :::::::::%%",
"%%%%%%%%% eOXXXX<oo %%%%%%%%%%%%",
"%%qqqqqqq @eXXXXw  q0000000000%%",
"%pqqqqqqq @@...7Xo@ 0000000000t%",
"%pqqqqqqq @@.... ee 0000000000u%",
"%pqqqqqqq @@===*== 00000000000u%",
"%pqqqqqqq ee====*== 0000000000u%",
"%pqqqqqqqq   *===*= 0000000000u%",
"%pqqqqqqqq ***222  00000000000y%",
"%pqqqqqqqq << && i000000000000y%",
"%pqqqqqqqqq   &,, 000000000000y%",
"%pqqqqqqq5---5>##>444000000000y%",
"%pqqqqqqqq55559$$8440000000000y%",
"%pqqqqqqqqqqqqp%%y000000000000y%",
"%pqqqqqqqqqqqyp%%y000000000000y%",
"%1dddddddddddd1%%:ppaaapdppppd:%",
"%%111111111111%%%%:::::::-::-:%%"
};
