/* XPM */
static char *player_left[] = {
/* columns rows colors chars-per-pixel */
"32 32 44 1 ",
"  c black",
". c #342A25",
"X c #3C312C",
"o c #7A2D18",
"O c #512D23",
"+ c #5B3C2C",
"@ c #453A35",
"# c #4F5210",
"$ c #5F6215",
"% c #72751B",
"& c #4A413C",
"* c #5A5237",
"= c #645C3F",
"- c #57564D",
"; c #5A594F",
": c #605C48",
"> c #605E58",
", c #695D58",
"< c #5E724A",
"1 c #64604B",
"2 c #70694F",
"3 c #6C6852",
"4 c #68675C",
"5 c #6B6B5F",
"6 c #677755",
"7 c #6A7A5A",
"8 c #6F6D65",
"9 c #727169",
"0 c #7C7B6E",
"q c #807F72",
"w c #70805F",
"e c #778667",
"r c #8DAB5F",
"t c #828076",
"y c #838178",
"u c #848279",
"i c #878679",
"p c #88867D",
"a c #89877F",
"s c #A2A97F",
"d c #8D8B83",
"f c #8E8C83",
"g c #939189",
"h c #BEC49F",
/* pixels */
"%%%%%%%%%%%%%%%%%%%%%%%%%%%%%%%%",
"%%iiiiiiiiiiii%%%%qqqqqqqqqqqq%%",
"%fiiiiiiiiii     pqqqqqqqqqqqqp%",
"%fiiiiiiiii +OO++ qqqqqqqqqqqqp%",
"%fiiiiiiii ++OO+<< qqqqqqqqqqqp%",
"%fiiiiiii +<+O+<<<< qqqqqqqqqqp%",
"%fiiiiiii <<++6<<<< qqqqqqqqqqp%",
"%fiiiiiii <6+ww66<< qqqqqqqqqqp%",
"%fiiiiiii 6w+www76< qqqqqqqqqqp%",
"%fiiiiiii   w+   e< qqqqqqqqqqp%",
"%fiiiiiii hrw+rhww qqqqqqqqqqqp%",
"%fiiiiiii 6ww+wwww  qqqqqqqqqqp%",
"%fiiiiiii 6www++w<@@ qqqetttqqp%",
"%fiiiiiii <swsws+X@@@ qqqt00qqp%",
"%1gggggggg <sosoXX@@@@ ddpdppd1%",
"%%111111133 <ooXXXX @@@ ::::::%%",
"%%%%%%%%%%%% eXXXXw@@@ %%%%%%%%%",
"%%qqqqqqqqqq o@..7@@  00000000%%",
"%pqqqqqqqqqq @@...ee 000000000t%",
"%pqqqqqqqqqq @====== 000000000u%",
"%pqqqqqqqqq ====*=== 000000000u%",
"%pqqqqqqqqq 222* 222 000000000u%",
"%pqqqqqqqqqq ===  === 00000000y%",
"%pqqqqqqqqqqq && u << 00000000y%",
"%pqqqqqqqqqq ,,& u0  000000000y%",
"%pqqqqqqqqq5;;>##8---;44000000y%",
"%pqqqqqqqqqq559$$8444440000000y%",
"%pqqqqqqqqqqqqp%%u000000000000y%",
"%pqqqqqqqqqqttp%%u000000000000y%",
"%pqqqqqqqqqqqti%%u000000000000y%",
"%1ddddddffffpf1%%:pfaapppdpppd:%",
"%%111111111111%%%%:;:::::;::;:%%"
};
