/* XPM */
static char *player_back[] = {
/* columns rows colors chars-per-pixel */
"32 32 39 1 ",
"  c black",
". c #342A25",
"X c #3C312C",
"o c #512D23",
"O c #5B3C2C",
"+ c #453A35",
"@ c #4F5110",
"# c #5F6215",
"$ c #72751B",
"% c #4A413C",
"& c #645C3F",
"* c #56564C",
"= c #59594F",
"- c #5C5B54",
"; c #605C48",
": c #695D58",
"> c #5E724A",
", c #64604B",
"< c #70694F",
"1 c #68675C",
"2 c #6B6A5F",
"3 c #677755",
"4 c #6A7A5A",
"5 c #6F6D65",
"6 c #727069",
"7 c #7C7B6E",
"8 c #807F72",
"9 c #70805F",
"0 c #778667",
"q c #828076",
"w c #838178",
"e c #838279",
"r c #848279",
"t c #878679",
"y c #88867D",
"u c #89877F",
"i c #8D8B83",
"p c #8E8C83",
"a c #939189",
/* pixels */
"$$$$$$$$$$$$$$$$$$$$$$$$$$$$$$$$",
"$$tttttttttttt$$$$888888888888$$",
"$pttttttttttttp$$y888888888888y$",
"$pttttttttt     $y888888888888y$",
"$ptttttttt Ooooo y888888888888y$",
"$pttttttt >>OoO>> 888888888888y$",
"$ptttttt >>>OO>>>> 88888888888y$",
"$ptttttt >>>O33>>> 88888888888y$",
"$ptttttt >>3O993>> 88888888888y$",
"$ptttttt >39O9993> 88888888888y$",
"$ptttttt 39O000993 88888888888y$",
"$ptttttt 3O9000993 88888888888y$",
"$ptttttt 3  ...   8888880qqq88y$",
"$pttttttt +....... 888888q7788y$",
"$,aaaaaaa +.......X aaiiiyiyyi,$",
"$$,,,,,,, ++......XX ;;;;;;;;;$$",
"$$$$$$$$$$ +......X++ $$$$$$$$$$",
"$$8888888  ++...4. ++ 77777777$$",
"$y888888 ++++XX9XX ++ 77777777q$",
"$y888888 00  X999X ++ 77777777w$",
"$y8888888   <<<<<< ++ 77777777w$",
"$y88888888 &<<<<<< 00 77777777w$",
"$y8888888 &&<<&<< 7  777777777w$",
"$y8888888 &&&  &&& 77777777777w$",
"$y88888888 >> y %% 77777777777w$",
"$y888888888  8y :: 77777777777w$",
"$y88888822====6@@-*11177777777w$",
"$y8888888222226##5111777777777w$",
"$y8888888888qqu$$t777777777777w$",
"$y88888888888qy$$t777777777777w$",
"$,iiiiiipippup;$$;yyuuuuuutuup;$",
"$$,,,,,,,,,,,,$$$$;;;;;;;;;=-;$$"
};
