/* XPM */
static char *player[] = {
/* columns rows colors chars-per-pixel */
"13 20 11 1 ",
"  c #0E071B",
". c #5D2C28",
"X c #134C4C",
"o c #1E6F50",
"O c #704643",
"+ c #33984B",
"@ c #D29F70",
"# c #0069AA",
"$ c #0098DC",
"% c #F6CA9F",
"& c None",
/* pixels */
"&&&       &&&",
"&& .OO.OO. &&",
"& .OOOOOOO. &",
"& OOOO.OOOO &",
" .OOO...OOO. ",
" OOO.. .OOOO ",
" OOO. @ .OOO ",
" ..  @@@  .. ",
"&  @ %%% @  &",
"& @@ %%% @@ &",
"&& %%%%%%% &&",
"&& X%%%%%X &&",
"&& Xo++ooX &&",
"& %%o+++o%% &",
"& %%oo++o%% &",
"&& $$$#$$$ &&",
"&& $$# #$$ &&",
"&& .. & .. &&",
"&&&&&&&&&&&&&",
"&&&&&&&&&&&&&"
};
