/* XPM */
static char *player_front[] = {
/* columns rows colors chars-per-pixel */
"32 32 43 1 ",
"  c black",
". c #342A25",
"X c #3C312C",
"o c #7A2D18",
"O c #512D23",
"+ c #5B3C2C",
"@ c #453A35",
"# c #4F5110",
"$ c #5F6215",
"% c #72751B",
"& c #4A413C",
"* c #5A5237",
"= c #645C3F",
"- c #56564C",
"; c #59594F",
": c #5C5B54",
"> c #605C48",
", c #695D58",
"< c #5E724A",
"1 c #64604B",
"2 c #70694F",
"3 c #68675C",
"4 c #6B6A5F",
"5 c #677755",
"6 c #6A7A5A",
"7 c #6F6D65",
"8 c #727069",
"9 c #7C7B6E",
"0 c #807F72",
"q c #70805F",
"w c #778667",
"e c #8DAB5F",
"r c #828076",
"t c #838178",
"y c #848279",
"u c #878679",
"i c #88867D",
"p c #89877F",
"a c #A2A97F",
"s c #8D8B83",
"d c #8E8C83",
"f c #939189",
"g c #BEC49F",
/* pixels */
"%%%%%%%%%%%%%%%%%%%%%%%%%%%%%%%%",
"%%uuuuuuuuuuuu%%%%000000000000%%",
"%duuuuuuuuuuuud%%i000000000000i%",
"%duuuuuuuuuuuu     00000000000i%",
"%duuuuuuuuuuu +OOOO 0000000000i%",
"%duuuuuuuuuu +<+OO+< 000000000i%",
"%duuuuuuuuu O+<+O+<<< 00000000i%",
"%duuuuuuuuu O+<++5<<< 00000000i%",
"%duuuuuuuuu +<5+6w5<< 00000000i%",
"%duuuuuuuuu <5q+q6w5< 00000000i%",
"%duuuuuuuuu 5  q+q  5 00000000i%",
"%duuuuuuuuu 5geq+qeg5 00000000i%",
"%duuuuuuuuu qqqqq+qq9 w0wrrr00i%",
"%duuuuuuuuu <qqqqq+q< 000r9900i%",
"%1ffffffff O@<aqaqa+ fsssisiis1%",
"%%1111111 OO@X<aoaoX >>>>>>>>>%%",
"%%%%%%%% wO@XXX<ooX %%%%%%%%%%%%",
"%%000000 @w XXXXqX@  999999999%%",
"%i000000 @@ ...6o@@@@ 99999999r%",
"%i000000 @@ .....  ww 99999999y%",
"%i000000 @@ ======   999999999y%",
"%i000000 ww ===*=== 9999999999y%",
"%i0000000  r ===*==2 999999999y%",
"%i000000000 222  *22 999999999t%",
"%i000000000 && % qq 9999999999t%",
"%i000000000 ,, %%  99999999999t%",
"%i000000444;;;,$#:--3399999999t%",
"%i0000000444448$$7333999999999t%",
"%i000000000000i%%y999999999999t%",
"%i00000000000ri%%u999999999999t%",
"%1ssssssssssss>%%>idpppisiiiis>%",
"%%111111111111%%%%>>>>>>>;>>;>%%"
};
