/* XPM */
static char *wall[] = {
/* columns rows colors chars-per-pixel */
"32 32 118 2 ",
"   c #523215",
".  c #543315",
"X  c #563615",
"o  c #583615",
"O  c #553816",
"+  c #593B15",
"@  c #5B3E16",
"#  c #5C4217",
"$  c #5C4317",
"%  c #5D4317",
"&  c #5D4417",
"*  c #5C4318",
"=  c #5F4619",
"-  c #565112",
";  c #575212",
":  c #535715",
">  c #585213",
",  c #535815",
"<  c #555815",
"1  c #555816",
"2  c #555A17",
"3  c #575C17",
"4  c #585B17",
"5  c #595D17",
"6  c #5C5E17",
"7  c #595C18",
"8  c #5B5E18",
"9  c #614719",
"0  c #624919",
"q  c #654B1A",
"w  c #664C1A",
"e  c #674C1A",
"r  c #674D1A",
"t  c #625819",
"y  c #655B19",
"u  c #675D1A",
"i  c #685E1A",
"p  c #5D6018",
"a  c #656417",
"s  c #606318",
"d  c #626418",
"f  c #636619",
"g  c #676A1A",
"h  c #68691B",
"j  c #686B1A",
"k  c #6A6C1A",
"l  c #6A6D1B",
"z  c #6B6E1B",
"x  c #6E6F1B",
"c  c #6C6E1D",
"v  c #766916",
"b  c #776916",
"n  c #6D701B",
"m  c #6E711C",
"M  c #6F721C",
"N  c #70711B",
"B  c #72751B",
"V  c #70731C",
"C  c #72731D",
"Z  c #74761D",
"A  c #7F731D",
"S  c #78771F",
"D  c #7F741E",
"F  c #77781E",
"G  c #564E3D",
"H  c #6F6F21",
"J  c #6F7021",
"K  c #707021",
"L  c #767522",
"P  c #777622",
"I  c #777722",
"U  c #787722",
"Y  c #787821",
"T  c #797822",
"R  c #7B7A23",
"E  c #7D7C22",
"W  c #7F7F23",
"Q  c #7B7B25",
"!  c #797928",
"~  c #7A7A28",
"^  c #605C48",
"/  c #64604B",
"(  c #6D695D",
")  c #706C61",
"_  c #726D64",
"`  c #746F67",
"'  c #77726A",
"]  c #78736C",
"[  c #7C7B6E",
"{  c #80741E",
"}  c #807F23",
"|  c #807F72",
" . c #818023",
".. c #838123",
"X. c #838223",
"o. c #848324",
"O. c #878429",
"+. c #87842D",
"@. c #888529",
"#. c #89872C",
"$. c #8A872D",
"%. c #88842E",
"&. c #888331",
"*. c #888431",
"=. c #898532",
"-. c #8A8532",
";. c #8C8733",
":. c #8D8833",
">. c #8E8833",
",. c #8F8934",
"<. c #838178",
"1. c #838279",
"2. c #848279",
"3. c #878679",
"4. c #88867D",
"5. c #8D8B83",
"6. c #8E8C83",
"7. c #939189",
/* pixels */
"B B B B B B B B Z B B B B B B B B B B B B B B B B B B B B B B B ",
"B B 3.3.3.3.3.3.3.3.3.3.3.3.B B B B | | <.[ <.[ [ <.<.[ <.[ B B ",
"B 6.3.3.3.3.3.3.3.3.3.3.3.3.5.B Z 4.| | [ <.<.[ <.<.[ <.[ <.3.B ",
"B 6.3.3.3.3.3.3.3.3.3.3.3.3.q q q 3.| | <.[ <.<.[ <.<.[ <.<.3.B ",
"B 6.3.3.3.3.3.3.3.3.3.3.3.w :.-.;.q [ <.| | <.[ | | | | [ :.6.V ",
"B 6.3.3.3.3.3.3.3.r e r 3.w :.:.-.q <.0 0 | [ <.| | | | <.[ 3.V ",
"B 6.3.3.3.3.3.3.r :.:.:.r o.:.:.....q P Z 0 <.<.| | | | | <.3.Z ",
"B 6.3.3.3.3.3.3.r ,.:.:.o.o.o.o.....P P P P 9 [ | | | | | [ 5.B ",
"B 6.3.3.3.q w w ..o.o.o.o.o.o.o.} o.Y U Y Z 0 <.| | | | | | 4.M ",
"B 6.3.3.w :.;.:.:.%.+.F o.,.:.:.o.o...U U y y & = $ | | | | 4.B ",
"B 6.3.3.q -.:.:.:.O.$.F Z :.,.:.,.o.} Z i u y M z z = | | | 4.B ",
"B 6.3.3.3.w :.:.@.O.Z Z F F ,.:.;.X.Z Z P V y M z J = | | | 4.B ",
"B 6.3.3.3.3.w ..@.v v $.$.F Z :.;.S S Z ..W W t M = | | | | 4.B ",
"B 6.3.3.q q ......v o.#.$.#.F Z S S S :.-.-.W M = | | | | | 4.B ",
"B / 7.0 +.%.-.:...X.o.%.$.$.D D { Z F -.-.-.M M z $ $ ] 5.5./ B ",
"B B / 0 -.-.;.;.....:.:.X.{ D D { :.:.-.-.M z z z M j $ G G B B ",
"B B B 0 -.;.-.N B :.;.;.......A ;.;.;.} W E E z z j z 1 & a a B ",
"B Z [ <.0 U Q C N ;.-.z W ......;.-.-.} W W W z z z 1 1 & ( a B ",
"B 4.[ 0 U Q Q -.;.;.j j ;.;.;...} W } W &.&.W z t t 1 $ ( ( _ B ",
"B 4.9 j S U U -.-.-.j j ;.%.;.N } ..z &.&.&.z z 4 1 $ ( ( ( <.B ",
"B 4.9 j j h h &.-.z j j ;.-.M M N z M %.%.z z z 1 , : $ ( [ <.B ",
"B 4.9 K K j f d z M M z z M u z z M z 4 7 j z 2 1 1 1 1 $ [ <.B ",
"Z 4.$ H K j f z j c z N M z 5 5 x z z ; > 1 1 1 5 p 5 5 * ( <.Z ",
"Z 4.[ $ $ s s ~ ! E s z M 5 5 5 x z > > > 1 3 1 5 5 5 $ ( ( <.B ",
"N 4.| | ( $ U Q ! ! p t t 5 4 2 t ; ; ; f f , : p 5 @ ( ( ( <.B ",
"B 4.| <.<.$ ! ! T $ 8 8 8 5 4 5 O 2 1 f f f O X @ @ ( ( ( [ <.B ",
"B 4.[ [ | ) @ @ + ( # 5 1 2 o O a X 1 f f X ( ( ( ( ( ( [ [ <.B ",
"B 4.<.<.| | ) _ _ _ ( O o X ] a a `       ( ( ( ( [ [ [ [ [ <.B ",
"Z 4.| | | | | | [ <.) ) _ ( ' a a <.( ( ( ( ( ( [ [ [ [ [ [ <.B ",
"Z 3.| | | | | | <.[ <.( ( _ ' B B <.[ [ [ [ [ [ [ [ [ [ [ [ <.B ",
"B ^ 5.5.5.6.5.6.6.6.6.6.6.6./ B Z ^ 4.6.5.4.4.4.4.6.6.4.4.4.^ B ",
"Z Z / / / / / ^ / / / / / / B B N V ^ ^ ^ ^ ^ ^ ^ ^ ^ ^ ^ ^ B B "
};
